# xmcd CD database file
# Copyright (C) 1993-1998 Ti Kan
#
# Track frame offsets:
#	150
#	9222
#	29490
#	47352
#	65385
#	84672
#	107525
#	116705
#	126620
#	148845
#	162477
#	176212
#	194885
#	218950
#	242140
#	266247
#
# Disc length: 3795 seconds
#
# Revision: 1
# Processed by: cddbd v1.4b41PL1 Copyright (c) Steve Scherf et al.
# Submitted via: CDValet v3.31 - Copyright (c) 1997 Greg Leichner
#
DISCID=f70ed110
DTITLE=Various Artist - Black Music Month Sampler 1993
DYEAR=1900
DGENRE=
TTITLE0=If I Had No Loot
TTITLE1=I'm In Love
TTITLE2=Red Rose
TTITLE3=Gimme Luv
TTITLE4=Ther's No Living Without You
TTITLE5=Don't Say Goodbye
TTITLE6=I Just Had To Hear Your Voice
TTITLE7=How About You
TTITLE8=One Last Cry
TTITLE9=Come Down Baby
TTITLE10=Let The Dogs Loose
TTITLE11=Slappin' Suckas Silly
TTITLE12=You're My Kinda Lady
TTITLE13=I'm Outta Here
TTITLE14=Apparently Nothin
TTITLE15=Living For The Sunshine
EXTD=
EXTT0=
EXTT1=
EXTT2=
EXTT3=
EXTT4=
EXTT5=
EXTT6=
EXTT7=
EXTT8=
EXTT9=
EXTT10=
EXTT11=
EXTT12=
EXTT13=
EXTT14=
EXTT15=
PLAYORDER=
